# xmcd
#
# Track frame offsets:
#	150
#	31475
#	52825
#	69625
#	97337
#	121412
#	168387
#
# Disc length: 2716 seconds
#
# Revision: 0
# Processed by: cddbd v1.5.2PL0 Copyright (c) Steve Scherf et al.
# Submitted via: EasyCDDAExtractor 16.0.8.2
#
DISCID=5e0a9a07
DTITLE=龚一 - 广陵散
DYEAR=2010
DGENRE=
TTITLE0=广陵散
TTITLE1=醉鱼唱晚
TTITLE2=酒狂
TTITLE3=流水
TTITLE4=山居吟
TTITLE5=潇湘水云
TTITLE6=平沙落雁
EXTD=
EXTT0=
EXTT1=
EXTT2=
EXTT3=
EXTT4=
EXTT5=
EXTT6=
PLAYORDER=
